<mxfile host="app.diagrams.net" modified="2024-01-19T12:00:50.757Z" agent="Mozilla/5.0 (Windows NT 10.0; Win64; x64) AppleWebKit/537.36 (KHTML, like Gecko) Chrome/120.0.0.0 Safari/537.36" etag="-GN0R4CgEpygGWe4WVrM" version="22.1.17" type="device">
  <diagram id="R2lEEEUBdFMjLlhIrx00" name="Page-1">
    <mxGraphModel dx="3220" dy="1300" grid="1" gridSize="10" guides="1" tooltips="1" connect="1" arrows="1" fold="1" page="1" pageScale="1" pageWidth="1100" pageHeight="850" math="0" shadow="0" extFonts="Permanent Marker^https://fonts.googleapis.com/css?family=Permanent+Marker">
      <root>
        <mxCell id="0" />
        <mxCell id="1" parent="0" />
        <mxCell id="9rpDdjOB9ZZYko7884jz-30" value="Holds" style="shape=rhombus;perimeter=rhombusPerimeter;whiteSpace=wrap;html=1;align=center;fillColor=#e51400;strokeColor=#B20000;fontColor=#ffffff;" parent="1" vertex="1">
          <mxGeometry x="-70" y="375" width="120" height="60" as="geometry" />
        </mxCell>
        <mxCell id="9rpDdjOB9ZZYko7884jz-31" value="" style="edgeStyle=entityRelationEdgeStyle;fontSize=12;html=1;endArrow=ERoneToMany;rounded=0;exitX=0.5;exitY=0;exitDx=0;exitDy=0;entryX=0;entryY=0.75;entryDx=0;entryDy=0;" parent="1" source="9rpDdjOB9ZZYko7884jz-30" target="9rpDdjOB9ZZYko7884jz-9" edge="1">
          <mxGeometry width="100" height="100" relative="1" as="geometry">
            <mxPoint x="345" y="385" as="sourcePoint" />
            <mxPoint x="285" y="305" as="targetPoint" />
          </mxGeometry>
        </mxCell>
        <mxCell id="9rpDdjOB9ZZYko7884jz-32" value="" style="edgeStyle=entityRelationEdgeStyle;fontSize=12;html=1;endArrow=ERmandOne;rounded=0;exitX=0.5;exitY=1;exitDx=0;exitDy=0;" parent="1" source="9rpDdjOB9ZZYko7884jz-30" target="9rpDdjOB9ZZYko7884jz-11" edge="1">
          <mxGeometry width="100" height="100" relative="1" as="geometry">
            <mxPoint x="245" y="635" as="sourcePoint" />
            <mxPoint x="185" y="505" as="targetPoint" />
          </mxGeometry>
        </mxCell>
        <mxCell id="9rpDdjOB9ZZYko7884jz-57" value="is assigned to" style="shape=rhombus;perimeter=rhombusPerimeter;whiteSpace=wrap;html=1;align=center;fillColor=#e51400;strokeColor=#B20000;fontColor=#ffffff;" parent="1" vertex="1">
          <mxGeometry x="275" y="375" width="120" height="60" as="geometry" />
        </mxCell>
        <mxCell id="9rpDdjOB9ZZYko7884jz-59" value="" style="edgeStyle=entityRelationEdgeStyle;fontSize=12;html=1;endArrow=ERzeroToMany;endFill=1;rounded=0;" parent="1" source="9rpDdjOB9ZZYko7884jz-57" target="9rpDdjOB9ZZYko7884jz-112" edge="1">
          <mxGeometry width="100" height="100" relative="1" as="geometry">
            <mxPoint x="435" y="545" as="sourcePoint" />
            <mxPoint x="505" y="325" as="targetPoint" />
          </mxGeometry>
        </mxCell>
        <mxCell id="9rpDdjOB9ZZYko7884jz-62" value="" style="group" parent="1" vertex="1" connectable="0">
          <mxGeometry x="445" y="305" width="130" height="120" as="geometry" />
        </mxCell>
        <mxCell id="9rpDdjOB9ZZYko7884jz-112" value="Appointments" style="shape=ext;margin=3;double=1;whiteSpace=wrap;html=1;align=center;fillColor=#60a917;fontColor=#ffffff;strokeColor=#2D7600;strokeWidth=3;" parent="9rpDdjOB9ZZYko7884jz-62" vertex="1">
          <mxGeometry x="15" y="80" width="100" height="40" as="geometry" />
        </mxCell>
        <mxCell id="9rpDdjOB9ZZYko7884jz-51" value="Appointment ID" style="ellipse;whiteSpace=wrap;html=1;align=center;fontStyle=4;fillColor=#fff2cc;strokeColor=#d6b656;" parent="9rpDdjOB9ZZYko7884jz-62" vertex="1">
          <mxGeometry x="15" y="-10" width="100" height="40" as="geometry" />
        </mxCell>
        <mxCell id="9rpDdjOB9ZZYko7884jz-52" value="" style="endArrow=none;html=1;rounded=0;" parent="9rpDdjOB9ZZYko7884jz-62" source="9rpDdjOB9ZZYko7884jz-51" target="9rpDdjOB9ZZYko7884jz-112" edge="1">
          <mxGeometry relative="1" as="geometry">
            <mxPoint x="-180" y="190" as="sourcePoint" />
            <mxPoint x="72.5" y="80" as="targetPoint" />
          </mxGeometry>
        </mxCell>
        <mxCell id="9rpDdjOB9ZZYko7884jz-66" value="creates" style="shape=rhombus;perimeter=rhombusPerimeter;whiteSpace=wrap;html=1;align=center;fillColor=#e51400;strokeColor=#B20000;fontColor=#ffffff;" parent="1" vertex="1">
          <mxGeometry x="625" y="325" width="120" height="60" as="geometry" />
        </mxCell>
        <mxCell id="9rpDdjOB9ZZYko7884jz-67" value="" style="edgeStyle=entityRelationEdgeStyle;fontSize=12;html=1;endArrow=ERzeroToMany;endFill=1;rounded=0;entryX=1;entryY=0.25;entryDx=0;entryDy=0;" parent="1" source="9rpDdjOB9ZZYko7884jz-66" target="9rpDdjOB9ZZYko7884jz-112" edge="1">
          <mxGeometry width="100" height="100" relative="1" as="geometry">
            <mxPoint x="685" y="485" as="sourcePoint" />
            <mxPoint x="605" y="325" as="targetPoint" />
          </mxGeometry>
        </mxCell>
        <mxCell id="9rpDdjOB9ZZYko7884jz-69" value="is associated to" style="shape=rhombus;perimeter=rhombusPerimeter;whiteSpace=wrap;html=1;align=center;fillColor=#e51400;strokeColor=#B20000;fontColor=#ffffff;" parent="1" vertex="1">
          <mxGeometry x="625" y="425" width="120" height="60" as="geometry" />
        </mxCell>
        <mxCell id="9rpDdjOB9ZZYko7884jz-71" value="" style="edgeStyle=entityRelationEdgeStyle;fontSize=12;html=1;endArrow=ERzeroToMany;endFill=1;rounded=0;entryX=1;entryY=0.75;entryDx=0;entryDy=0;" parent="1" source="9rpDdjOB9ZZYko7884jz-69" target="9rpDdjOB9ZZYko7884jz-112" edge="1">
          <mxGeometry width="100" height="100" relative="1" as="geometry">
            <mxPoint x="445" y="535" as="sourcePoint" />
            <mxPoint x="605" y="345" as="targetPoint" />
          </mxGeometry>
        </mxCell>
        <mxCell id="9rpDdjOB9ZZYko7884jz-82" value="" style="edgeStyle=entityRelationEdgeStyle;fontSize=12;html=1;endArrow=ERmandOne;rounded=0;entryX=0;entryY=0.25;entryDx=0;entryDy=0;" parent="1" source="9rpDdjOB9ZZYko7884jz-69" target="9rpDdjOB9ZZYko7884jz-14" edge="1">
          <mxGeometry width="100" height="100" relative="1" as="geometry">
            <mxPoint x="595" y="685" as="sourcePoint" />
            <mxPoint x="695" y="585" as="targetPoint" />
          </mxGeometry>
        </mxCell>
        <mxCell id="9rpDdjOB9ZZYko7884jz-83" value="is associated to" style="shape=rhombus;perimeter=rhombusPerimeter;whiteSpace=wrap;html=1;align=center;fillColor=#e51400;strokeColor=#B20000;fontColor=#ffffff;" parent="1" vertex="1">
          <mxGeometry x="625" y="545" width="120" height="60" as="geometry" />
        </mxCell>
        <mxCell id="9rpDdjOB9ZZYko7884jz-85" value="" style="edgeStyle=entityRelationEdgeStyle;fontSize=12;html=1;endArrow=ERmandOne;rounded=0;entryX=0;entryY=0.75;entryDx=0;entryDy=0;" parent="1" source="9rpDdjOB9ZZYko7884jz-83" target="9rpDdjOB9ZZYko7884jz-14" edge="1">
          <mxGeometry width="100" height="100" relative="1" as="geometry">
            <mxPoint x="685" y="745" as="sourcePoint" />
            <mxPoint x="785" y="645" as="targetPoint" />
          </mxGeometry>
        </mxCell>
        <mxCell id="9rpDdjOB9ZZYko7884jz-95" value="has" style="shape=rhombus;perimeter=rhombusPerimeter;whiteSpace=wrap;html=1;align=center;fillColor=#e51400;strokeColor=#B20000;fontColor=#ffffff;" parent="1" vertex="1">
          <mxGeometry x="275" y="495" width="120" height="60" as="geometry" />
        </mxCell>
        <mxCell id="9rpDdjOB9ZZYko7884jz-96" value="" style="edgeStyle=entityRelationEdgeStyle;fontSize=12;html=1;endArrow=ERmandOne;rounded=0;entryX=1;entryY=0.75;entryDx=0;entryDy=0;" parent="1" source="9rpDdjOB9ZZYko7884jz-95" target="9rpDdjOB9ZZYko7884jz-9" edge="1">
          <mxGeometry width="100" height="100" relative="1" as="geometry">
            <mxPoint x="145" y="525" as="sourcePoint" />
            <mxPoint x="245" y="425" as="targetPoint" />
          </mxGeometry>
        </mxCell>
        <mxCell id="9rpDdjOB9ZZYko7884jz-121" value="" style="group" parent="1" vertex="1" connectable="0">
          <mxGeometry x="-260" y="170" width="477.5" height="170" as="geometry" />
        </mxCell>
        <mxCell id="9rpDdjOB9ZZYko7884jz-98" value="First Name" style="ellipse;whiteSpace=wrap;html=1;align=center;dashed=1;fillColor=#f5f5f5;strokeColor=#666666;fontColor=#333333;" parent="9rpDdjOB9ZZYko7884jz-121" vertex="1">
          <mxGeometry x="70" y="35" width="100" height="40" as="geometry" />
        </mxCell>
        <mxCell id="9rpDdjOB9ZZYko7884jz-99" value="Last Name" style="ellipse;whiteSpace=wrap;html=1;align=center;dashed=1;fillColor=#f5f5f5;strokeColor=#666666;fontColor=#333333;" parent="9rpDdjOB9ZZYko7884jz-121" vertex="1">
          <mxGeometry x="70" y="115" width="100" height="40" as="geometry" />
        </mxCell>
        <mxCell id="9rpDdjOB9ZZYko7884jz-100" value="" style="endArrow=none;html=1;rounded=0;" parent="9rpDdjOB9ZZYko7884jz-121" source="9rpDdjOB9ZZYko7884jz-99" target="9rpDdjOB9ZZYko7884jz-17" edge="1">
          <mxGeometry relative="1" as="geometry">
            <mxPoint x="20" y="230" as="sourcePoint" />
            <mxPoint x="180" y="230" as="targetPoint" />
          </mxGeometry>
        </mxCell>
        <mxCell id="9rpDdjOB9ZZYko7884jz-101" value="" style="endArrow=none;html=1;rounded=0;" parent="9rpDdjOB9ZZYko7884jz-121" source="9rpDdjOB9ZZYko7884jz-98" target="9rpDdjOB9ZZYko7884jz-17" edge="1">
          <mxGeometry relative="1" as="geometry">
            <mxPoint x="20" y="260" as="sourcePoint" />
            <mxPoint x="180" y="260" as="targetPoint" />
          </mxGeometry>
        </mxCell>
        <mxCell id="9rpDdjOB9ZZYko7884jz-9" value="Doctors" style="whiteSpace=wrap;html=1;align=center;fillColor=#60a917;strokeColor=#2D7600;fontColor=#ffffff;strokeWidth=3;perimeterSpacing=0;glass=0;rounded=0;shadow=0;" parent="9rpDdjOB9ZZYko7884jz-121" vertex="1">
          <mxGeometry x="312.5" y="120" width="100" height="40" as="geometry" />
        </mxCell>
        <mxCell id="9rpDdjOB9ZZYko7884jz-16" value="Doctor ID" style="ellipse;whiteSpace=wrap;html=1;align=center;fontStyle=4;fillColor=#fff2cc;strokeColor=#d6b656;" parent="9rpDdjOB9ZZYko7884jz-121" vertex="1">
          <mxGeometry x="232.5" y="5" width="100" height="40" as="geometry" />
        </mxCell>
        <mxCell id="9rpDdjOB9ZZYko7884jz-17" value="Doctor Name" style="ellipse;whiteSpace=wrap;html=1;align=center;fillColor=#fff2cc;strokeColor=#d6b656;" parent="9rpDdjOB9ZZYko7884jz-121" vertex="1">
          <mxGeometry x="162.5" y="75" width="100" height="40" as="geometry" />
        </mxCell>
        <mxCell id="9rpDdjOB9ZZYko7884jz-18" value="Contact Information" style="ellipse;whiteSpace=wrap;html=1;align=center;fillColor=#fff2cc;strokeColor=#d6b656;" parent="9rpDdjOB9ZZYko7884jz-121" vertex="1">
          <mxGeometry x="352.5" width="125" height="50" as="geometry" />
        </mxCell>
        <mxCell id="9rpDdjOB9ZZYko7884jz-38" value="" style="endArrow=none;html=1;rounded=0;" parent="9rpDdjOB9ZZYko7884jz-121" source="9rpDdjOB9ZZYko7884jz-9" target="9rpDdjOB9ZZYko7884jz-16" edge="1">
          <mxGeometry relative="1" as="geometry">
            <mxPoint x="352.5" y="90" as="sourcePoint" />
            <mxPoint x="512.5" y="90" as="targetPoint" />
          </mxGeometry>
        </mxCell>
        <mxCell id="9rpDdjOB9ZZYko7884jz-39" value="" style="endArrow=none;html=1;rounded=0;" parent="9rpDdjOB9ZZYko7884jz-121" source="9rpDdjOB9ZZYko7884jz-9" target="9rpDdjOB9ZZYko7884jz-18" edge="1">
          <mxGeometry relative="1" as="geometry">
            <mxPoint x="412.5" y="100" as="sourcePoint" />
            <mxPoint x="572.5" y="100" as="targetPoint" />
          </mxGeometry>
        </mxCell>
        <mxCell id="9rpDdjOB9ZZYko7884jz-42" value="" style="endArrow=none;html=1;rounded=0;" parent="9rpDdjOB9ZZYko7884jz-121" source="9rpDdjOB9ZZYko7884jz-17" target="9rpDdjOB9ZZYko7884jz-9" edge="1">
          <mxGeometry relative="1" as="geometry">
            <mxPoint x="282.5" y="240" as="sourcePoint" />
            <mxPoint x="442.5" y="240" as="targetPoint" />
          </mxGeometry>
        </mxCell>
        <mxCell id="9rpDdjOB9ZZYko7884jz-58" value="" style="edgeStyle=entityRelationEdgeStyle;fontSize=12;html=1;endArrow=ERmandOne;rounded=0;entryX=1;entryY=0.5;entryDx=0;entryDy=0;" parent="1" source="9rpDdjOB9ZZYko7884jz-57" target="9rpDdjOB9ZZYko7884jz-9" edge="1">
          <mxGeometry width="100" height="100" relative="1" as="geometry">
            <mxPoint x="610" y="275" as="sourcePoint" />
            <mxPoint x="485" y="275" as="targetPoint" />
          </mxGeometry>
        </mxCell>
        <mxCell id="9rpDdjOB9ZZYko7884jz-122" value="" style="group" parent="1" vertex="1" connectable="0">
          <mxGeometry x="-100" y="485" width="300" height="155" as="geometry" />
        </mxCell>
        <mxCell id="9rpDdjOB9ZZYko7884jz-11" value="Specializations" style="whiteSpace=wrap;html=1;align=center;fillColor=#60a917;fontColor=#ffffff;strokeColor=#2D7600;strokeWidth=3;" parent="9rpDdjOB9ZZYko7884jz-122" vertex="1">
          <mxGeometry x="150" width="100" height="40" as="geometry" />
        </mxCell>
        <mxCell id="9rpDdjOB9ZZYko7884jz-20" value="Specialization ID" style="ellipse;whiteSpace=wrap;html=1;align=center;fontStyle=4;fillColor=#fff2cc;strokeColor=#d6b656;" parent="9rpDdjOB9ZZYko7884jz-122" vertex="1">
          <mxGeometry y="40" width="100" height="40" as="geometry" />
        </mxCell>
        <mxCell id="9rpDdjOB9ZZYko7884jz-21" value="Specialization Name" style="ellipse;whiteSpace=wrap;html=1;align=center;fillColor=#fff2cc;strokeColor=#d6b656;" parent="9rpDdjOB9ZZYko7884jz-122" vertex="1">
          <mxGeometry x="50" y="105" width="125" height="50" as="geometry" />
        </mxCell>
        <mxCell id="9rpDdjOB9ZZYko7884jz-22" value="Description" style="ellipse;whiteSpace=wrap;html=1;align=center;fillColor=#fff2cc;strokeColor=#d6b656;" parent="9rpDdjOB9ZZYko7884jz-122" vertex="1">
          <mxGeometry x="200" y="115" width="100" height="40" as="geometry" />
        </mxCell>
        <mxCell id="9rpDdjOB9ZZYko7884jz-33" value="" style="endArrow=none;html=1;rounded=0;entryX=0;entryY=1;entryDx=0;entryDy=0;" parent="9rpDdjOB9ZZYko7884jz-122" source="9rpDdjOB9ZZYko7884jz-20" target="9rpDdjOB9ZZYko7884jz-11" edge="1">
          <mxGeometry relative="1" as="geometry">
            <mxPoint x="-20" y="-60" as="sourcePoint" />
            <mxPoint x="140" y="-60" as="targetPoint" />
          </mxGeometry>
        </mxCell>
        <mxCell id="9rpDdjOB9ZZYko7884jz-34" value="" style="endArrow=none;html=1;rounded=0;" parent="9rpDdjOB9ZZYko7884jz-122" source="9rpDdjOB9ZZYko7884jz-11" target="9rpDdjOB9ZZYko7884jz-21" edge="1">
          <mxGeometry relative="1" as="geometry">
            <mxPoint x="180" y="70" as="sourcePoint" />
            <mxPoint x="340" y="70" as="targetPoint" />
          </mxGeometry>
        </mxCell>
        <mxCell id="9rpDdjOB9ZZYko7884jz-36" value="" style="endArrow=none;html=1;rounded=0;exitX=0.75;exitY=1;exitDx=0;exitDy=0;" parent="9rpDdjOB9ZZYko7884jz-122" source="9rpDdjOB9ZZYko7884jz-11" target="9rpDdjOB9ZZYko7884jz-22" edge="1">
          <mxGeometry relative="1" as="geometry">
            <mxPoint x="250" y="80" as="sourcePoint" />
            <mxPoint x="410" y="80" as="targetPoint" />
          </mxGeometry>
        </mxCell>
        <mxCell id="9rpDdjOB9ZZYko7884jz-123" value="" style="group" parent="1" vertex="1" connectable="0">
          <mxGeometry x="345" y="505" width="330" height="160" as="geometry" />
        </mxCell>
        <mxCell id="9rpDdjOB9ZZYko7884jz-119" value="" style="group" parent="9rpDdjOB9ZZYko7884jz-123" vertex="1" connectable="0">
          <mxGeometry width="330" height="160" as="geometry" />
        </mxCell>
        <mxCell id="9rpDdjOB9ZZYko7884jz-86" value="Availibility ID" style="ellipse;whiteSpace=wrap;html=1;align=center;fontStyle=4;fillColor=#fff2cc;strokeColor=#d6b656;" parent="9rpDdjOB9ZZYko7884jz-119" vertex="1">
          <mxGeometry x="115" y="120" width="100" height="40" as="geometry" />
        </mxCell>
        <mxCell id="9rpDdjOB9ZZYko7884jz-87" value="Date" style="ellipse;whiteSpace=wrap;html=1;align=center;fillColor=#fff2cc;strokeColor=#d6b656;" parent="9rpDdjOB9ZZYko7884jz-119" vertex="1">
          <mxGeometry y="120" width="100" height="40" as="geometry" />
        </mxCell>
        <mxCell id="9rpDdjOB9ZZYko7884jz-88" value="Status" style="ellipse;whiteSpace=wrap;html=1;align=center;fillColor=#fff2cc;strokeColor=#d6b656;" parent="9rpDdjOB9ZZYko7884jz-119" vertex="1">
          <mxGeometry x="230" y="120" width="100" height="40" as="geometry" />
        </mxCell>
        <mxCell id="9rpDdjOB9ZZYko7884jz-90" value="" style="endArrow=none;html=1;rounded=0;" parent="9rpDdjOB9ZZYko7884jz-119" source="9rpDdjOB9ZZYko7884jz-110" target="9rpDdjOB9ZZYko7884jz-86" edge="1">
          <mxGeometry relative="1" as="geometry">
            <mxPoint x="165" y="140" as="sourcePoint" />
            <mxPoint x="90" y="230" as="targetPoint" />
          </mxGeometry>
        </mxCell>
        <mxCell id="9rpDdjOB9ZZYko7884jz-91" value="" style="endArrow=none;html=1;rounded=0;" parent="9rpDdjOB9ZZYko7884jz-119" source="9rpDdjOB9ZZYko7884jz-110" target="9rpDdjOB9ZZYko7884jz-87" edge="1">
          <mxGeometry relative="1" as="geometry">
            <mxPoint x="147.30769230769238" y="140" as="sourcePoint" />
            <mxPoint x="130" y="240" as="targetPoint" />
          </mxGeometry>
        </mxCell>
        <mxCell id="9rpDdjOB9ZZYko7884jz-92" value="" style="endArrow=none;html=1;rounded=0;" parent="9rpDdjOB9ZZYko7884jz-119" source="9rpDdjOB9ZZYko7884jz-110" target="9rpDdjOB9ZZYko7884jz-88" edge="1">
          <mxGeometry relative="1" as="geometry">
            <mxPoint x="182.69230769230762" y="140" as="sourcePoint" />
            <mxPoint x="110" y="230" as="targetPoint" />
          </mxGeometry>
        </mxCell>
        <mxCell id="9rpDdjOB9ZZYko7884jz-110" value="Availibilities" style="shape=ext;margin=3;double=1;whiteSpace=wrap;html=1;align=center;fillColor=#60a917;fontColor=#ffffff;strokeColor=#2D7600;strokeWidth=3;" parent="9rpDdjOB9ZZYko7884jz-119" vertex="1">
          <mxGeometry x="115" width="100" height="40" as="geometry" />
        </mxCell>
        <mxCell id="9rpDdjOB9ZZYko7884jz-89" value="" style="edgeStyle=entityRelationEdgeStyle;fontSize=12;html=1;endArrow=ERzeroToMany;endFill=1;rounded=0;" parent="9rpDdjOB9ZZYko7884jz-123" source="9rpDdjOB9ZZYko7884jz-83" target="9rpDdjOB9ZZYko7884jz-110" edge="1">
          <mxGeometry width="100" height="100" relative="1" as="geometry">
            <mxPoint x="137.5" y="-170" as="sourcePoint" />
            <mxPoint x="-57.5" y="-170" as="targetPoint" />
          </mxGeometry>
        </mxCell>
        <mxCell id="9rpDdjOB9ZZYko7884jz-97" value="" style="edgeStyle=entityRelationEdgeStyle;fontSize=12;html=1;endArrow=ERzeroToMany;endFill=1;rounded=0;" parent="1" source="9rpDdjOB9ZZYko7884jz-95" target="9rpDdjOB9ZZYko7884jz-110" edge="1">
          <mxGeometry width="100" height="100" relative="1" as="geometry">
            <mxPoint x="65" y="275" as="sourcePoint" />
            <mxPoint x="150" y="265" as="targetPoint" />
          </mxGeometry>
        </mxCell>
        <mxCell id="9rpDdjOB9ZZYko7884jz-124" value="" style="group" parent="1" vertex="1" connectable="0">
          <mxGeometry x="900" y="580" width="300" height="190" as="geometry" />
        </mxCell>
        <mxCell id="9rpDdjOB9ZZYko7884jz-75" value="End Time" style="ellipse;whiteSpace=wrap;html=1;align=center;fillColor=#fff2cc;strokeColor=#d6b656;" parent="9rpDdjOB9ZZYko7884jz-124" vertex="1">
          <mxGeometry x="-70" y="90" width="100" height="40" as="geometry" />
        </mxCell>
        <mxCell id="9rpDdjOB9ZZYko7884jz-77" value="" style="endArrow=none;html=1;rounded=0;" parent="9rpDdjOB9ZZYko7884jz-124" source="9rpDdjOB9ZZYko7884jz-14" target="9rpDdjOB9ZZYko7884jz-75" edge="1">
          <mxGeometry relative="1" as="geometry">
            <mxPoint x="-130" y="70" as="sourcePoint" />
            <mxPoint x="30" y="70" as="targetPoint" />
          </mxGeometry>
        </mxCell>
        <mxCell id="9rpDdjOB9ZZYko7884jz-74" value="Start Time" style="ellipse;whiteSpace=wrap;html=1;align=center;fillColor=#fff2cc;strokeColor=#d6b656;" parent="9rpDdjOB9ZZYko7884jz-124" vertex="1">
          <mxGeometry x="50" y="100" width="100" height="40" as="geometry" />
        </mxCell>
        <mxCell id="9rpDdjOB9ZZYko7884jz-78" value="" style="endArrow=none;html=1;rounded=0;" parent="9rpDdjOB9ZZYko7884jz-124" source="9rpDdjOB9ZZYko7884jz-14" target="9rpDdjOB9ZZYko7884jz-74" edge="1">
          <mxGeometry relative="1" as="geometry">
            <mxPoint x="-300" y="110" as="sourcePoint" />
            <mxPoint x="-140" y="110" as="targetPoint" />
          </mxGeometry>
        </mxCell>
        <mxCell id="9rpDdjOB9ZZYko7884jz-14" value="Timeslots" style="whiteSpace=wrap;html=1;align=center;fillColor=#60a917;fontColor=#ffffff;strokeColor=#2D7600;strokeWidth=3;perimeterSpacing=0;glass=0;rounded=0;shadow=0;" parent="9rpDdjOB9ZZYko7884jz-124" vertex="1">
          <mxGeometry x="-50" width="100" height="40" as="geometry" />
        </mxCell>
        <mxCell id="9rpDdjOB9ZZYko7884jz-73" value="Timeslot ID" style="ellipse;whiteSpace=wrap;html=1;align=center;fontStyle=4;fillColor=#fff2cc;strokeColor=#d6b656;" parent="9rpDdjOB9ZZYko7884jz-124" vertex="1">
          <mxGeometry x="100" y="-10" width="100" height="40" as="geometry" />
        </mxCell>
        <mxCell id="9rpDdjOB9ZZYko7884jz-76" value="Day of Week" style="ellipse;whiteSpace=wrap;html=1;align=center;fillColor=#fff2cc;strokeColor=#d6b656;" parent="9rpDdjOB9ZZYko7884jz-124" vertex="1">
          <mxGeometry x="100" y="50" width="100" height="40" as="geometry" />
        </mxCell>
        <mxCell id="9rpDdjOB9ZZYko7884jz-79" value="" style="endArrow=none;html=1;rounded=0;" parent="9rpDdjOB9ZZYko7884jz-124" source="9rpDdjOB9ZZYko7884jz-76" target="9rpDdjOB9ZZYko7884jz-14" edge="1">
          <mxGeometry relative="1" as="geometry">
            <mxPoint x="-270" y="100" as="sourcePoint" />
            <mxPoint x="-110" y="100" as="targetPoint" />
          </mxGeometry>
        </mxCell>
        <mxCell id="9rpDdjOB9ZZYko7884jz-80" value="" style="endArrow=none;html=1;rounded=0;" parent="9rpDdjOB9ZZYko7884jz-124" source="9rpDdjOB9ZZYko7884jz-14" target="9rpDdjOB9ZZYko7884jz-73" edge="1">
          <mxGeometry relative="1" as="geometry">
            <mxPoint x="-260" y="130" as="sourcePoint" />
            <mxPoint x="-100" y="130" as="targetPoint" />
          </mxGeometry>
        </mxCell>
        <mxCell id="9rpDdjOB9ZZYko7884jz-187" style="edgeStyle=orthogonalEdgeStyle;rounded=0;orthogonalLoop=1;jettySize=auto;html=1;exitX=0.5;exitY=1;exitDx=0;exitDy=0;" parent="9rpDdjOB9ZZYko7884jz-124" source="9rpDdjOB9ZZYko7884jz-74" target="9rpDdjOB9ZZYko7884jz-74" edge="1">
          <mxGeometry relative="1" as="geometry" />
        </mxCell>
        <mxCell id="9rpDdjOB9ZZYko7884jz-125" value="" style="group" parent="1" vertex="1" connectable="0">
          <mxGeometry x="780" y="155" width="450" height="230" as="geometry" />
        </mxCell>
        <mxCell id="9rpDdjOB9ZZYko7884jz-105" value="First Name" style="ellipse;whiteSpace=wrap;html=1;align=center;dashed=1;fillColor=#f5f5f5;fontColor=#333333;strokeColor=#666666;" parent="9rpDdjOB9ZZYko7884jz-125" vertex="1">
          <mxGeometry x="350" y="95" width="100" height="40" as="geometry" />
        </mxCell>
        <mxCell id="9rpDdjOB9ZZYko7884jz-106" value="Last Name" style="ellipse;whiteSpace=wrap;html=1;align=center;dashed=1;fillColor=#f5f5f5;fontColor=#333333;strokeColor=#666666;" parent="9rpDdjOB9ZZYko7884jz-125" vertex="1">
          <mxGeometry x="350" y="150" width="100" height="40" as="geometry" />
        </mxCell>
        <mxCell id="9rpDdjOB9ZZYko7884jz-107" value="" style="endArrow=none;html=1;rounded=0;" parent="9rpDdjOB9ZZYko7884jz-125" source="9rpDdjOB9ZZYko7884jz-103" target="9rpDdjOB9ZZYko7884jz-106" edge="1">
          <mxGeometry relative="1" as="geometry">
            <mxPoint x="380" y="260" as="sourcePoint" />
            <mxPoint x="540" y="260" as="targetPoint" />
          </mxGeometry>
        </mxCell>
        <mxCell id="9rpDdjOB9ZZYko7884jz-108" value="" style="endArrow=none;html=1;rounded=0;" parent="9rpDdjOB9ZZYko7884jz-125" source="9rpDdjOB9ZZYko7884jz-103" target="9rpDdjOB9ZZYko7884jz-105" edge="1">
          <mxGeometry relative="1" as="geometry">
            <mxPoint x="380" y="260" as="sourcePoint" />
            <mxPoint x="540" y="260" as="targetPoint" />
          </mxGeometry>
        </mxCell>
        <mxCell id="9rpDdjOB9ZZYko7884jz-10" value="Patients" style="whiteSpace=wrap;html=1;align=center;fillColor=#60a917;fontColor=#ffffff;strokeColor=#2D7600;strokeWidth=3;perimeterSpacing=0;glass=0;rounded=0;shadow=0;" parent="9rpDdjOB9ZZYko7884jz-125" vertex="1">
          <mxGeometry x="128.99999999999994" y="70" width="100" height="40" as="geometry" />
        </mxCell>
        <mxCell id="9rpDdjOB9ZZYko7884jz-24" value="Patient ID" style="ellipse;whiteSpace=wrap;html=1;align=center;fontStyle=4;fillColor=#fff2cc;strokeColor=#d6b656;" parent="9rpDdjOB9ZZYko7884jz-125" vertex="1">
          <mxGeometry x="190" y="175" width="100" height="40" as="geometry" />
        </mxCell>
        <mxCell id="9rpDdjOB9ZZYko7884jz-26" value="Address" style="ellipse;whiteSpace=wrap;html=1;align=center;fillColor=#fff2cc;strokeColor=#d6b656;" parent="9rpDdjOB9ZZYko7884jz-125" vertex="1">
          <mxGeometry x="60" y="175" width="100" height="40" as="geometry" />
        </mxCell>
        <mxCell id="9rpDdjOB9ZZYko7884jz-43" value="" style="endArrow=none;html=1;rounded=0;" parent="9rpDdjOB9ZZYko7884jz-125" source="9rpDdjOB9ZZYko7884jz-26" target="9rpDdjOB9ZZYko7884jz-10" edge="1">
          <mxGeometry relative="1" as="geometry">
            <mxPoint x="0.002684821168486451" y="46.845428013230276" as="sourcePoint" />
            <mxPoint x="-6.9500000000000455" y="190" as="targetPoint" />
          </mxGeometry>
        </mxCell>
        <mxCell id="9rpDdjOB9ZZYko7884jz-45" value="" style="endArrow=none;html=1;rounded=0;" parent="9rpDdjOB9ZZYko7884jz-125" source="9rpDdjOB9ZZYko7884jz-116" target="9rpDdjOB9ZZYko7884jz-10" edge="1">
          <mxGeometry relative="1" as="geometry">
            <mxPoint x="238.99356670166162" y="75.69000239193053" as="sourcePoint" />
            <mxPoint x="183.04999999999995" y="200" as="targetPoint" />
          </mxGeometry>
        </mxCell>
        <mxCell id="9rpDdjOB9ZZYko7884jz-46" value="" style="endArrow=none;html=1;rounded=0;" parent="9rpDdjOB9ZZYko7884jz-125" source="9rpDdjOB9ZZYko7884jz-10" target="9rpDdjOB9ZZYko7884jz-24" edge="1">
          <mxGeometry relative="1" as="geometry">
            <mxPoint x="-26.950000000000045" y="230" as="sourcePoint" />
            <mxPoint x="133.04999999999995" y="230" as="targetPoint" />
          </mxGeometry>
        </mxCell>
        <mxCell id="9rpDdjOB9ZZYko7884jz-103" value="Patient Name" style="ellipse;whiteSpace=wrap;html=1;align=center;fillColor=#fff2cc;strokeColor=#d6b656;" parent="9rpDdjOB9ZZYko7884jz-125" vertex="1">
          <mxGeometry x="239" y="120" width="100" height="40" as="geometry" />
        </mxCell>
        <mxCell id="9rpDdjOB9ZZYko7884jz-104" value="" style="endArrow=none;html=1;rounded=0;" parent="9rpDdjOB9ZZYko7884jz-125" source="9rpDdjOB9ZZYko7884jz-10" target="9rpDdjOB9ZZYko7884jz-103" edge="1">
          <mxGeometry relative="1" as="geometry">
            <mxPoint x="20" y="220" as="sourcePoint" />
            <mxPoint x="180" y="220" as="targetPoint" />
          </mxGeometry>
        </mxCell>
        <mxCell id="9rpDdjOB9ZZYko7884jz-116" value="Phone" style="ellipse;whiteSpace=wrap;html=1;align=center;fillColor=#fff2cc;strokeColor=#d6b656;" parent="9rpDdjOB9ZZYko7884jz-125" vertex="1">
          <mxGeometry x="29" y="15" width="100" height="40" as="geometry" />
        </mxCell>
        <mxCell id="ZjMhqAL9Gjdf_ciRneZa-8" value="creates" style="shape=rhombus;perimeter=rhombusPerimeter;whiteSpace=wrap;html=1;align=center;fillColor=#e51400;strokeColor=#B20000;fontColor=#ffffff;" vertex="1" parent="9rpDdjOB9ZZYko7884jz-125">
          <mxGeometry x="290" y="-10" width="120" height="60" as="geometry" />
        </mxCell>
        <mxCell id="ZjMhqAL9Gjdf_ciRneZa-14" value="" style="edgeStyle=entityRelationEdgeStyle;fontSize=12;html=1;endArrow=ERmandOne;rounded=0;entryX=1;entryY=0.5;entryDx=0;entryDy=0;" edge="1" parent="9rpDdjOB9ZZYko7884jz-125" source="ZjMhqAL9Gjdf_ciRneZa-8" target="9rpDdjOB9ZZYko7884jz-10">
          <mxGeometry width="100" height="100" relative="1" as="geometry">
            <mxPoint x="90" y="45" as="sourcePoint" />
            <mxPoint x="190" y="-55" as="targetPoint" />
          </mxGeometry>
        </mxCell>
        <mxCell id="9rpDdjOB9ZZYko7884jz-68" value="" style="edgeStyle=entityRelationEdgeStyle;fontSize=12;html=1;endArrow=ERmandOne;rounded=0;entryX=0;entryY=0.75;entryDx=0;entryDy=0;" parent="1" source="9rpDdjOB9ZZYko7884jz-66" target="9rpDdjOB9ZZYko7884jz-10" edge="1">
          <mxGeometry width="100" height="100" relative="1" as="geometry">
            <mxPoint x="-585" y="465" as="sourcePoint" />
            <mxPoint x="-485" y="365" as="targetPoint" />
          </mxGeometry>
        </mxCell>
        <mxCell id="9rpDdjOB9ZZYko7884jz-161" value="assigns" style="shape=rhombus;perimeter=rhombusPerimeter;whiteSpace=wrap;html=1;align=center;fillColor=#e51400;strokeColor=#B20000;fontColor=#ffffff;" parent="1" vertex="1">
          <mxGeometry x="275" y="230" width="120" height="60" as="geometry" />
        </mxCell>
        <mxCell id="9rpDdjOB9ZZYko7884jz-162" value="assigns" style="shape=rhombus;perimeter=rhombusPerimeter;whiteSpace=wrap;html=1;align=center;fillColor=#e51400;strokeColor=#B20000;fontColor=#ffffff;" parent="1" vertex="1">
          <mxGeometry x="625" y="230" width="120" height="60" as="geometry" />
        </mxCell>
        <mxCell id="9rpDdjOB9ZZYko7884jz-163" value="" style="edgeStyle=entityRelationEdgeStyle;fontSize=12;html=1;endArrow=ERoneToMany;rounded=0;entryX=0;entryY=0.25;entryDx=0;entryDy=0;" parent="1" source="9rpDdjOB9ZZYko7884jz-162" target="9rpDdjOB9ZZYko7884jz-10" edge="1">
          <mxGeometry width="100" height="100" relative="1" as="geometry">
            <mxPoint x="380" y="320" as="sourcePoint" />
            <mxPoint x="480" y="220" as="targetPoint" />
          </mxGeometry>
        </mxCell>
        <mxCell id="9rpDdjOB9ZZYko7884jz-164" value="" style="edgeStyle=entityRelationEdgeStyle;fontSize=12;html=1;endArrow=ERmandOne;rounded=0;exitX=0;exitY=0.5;exitDx=0;exitDy=0;" parent="1" source="9rpDdjOB9ZZYko7884jz-162" target="9rpDdjOB9ZZYko7884jz-144" edge="1">
          <mxGeometry width="100" height="100" relative="1" as="geometry">
            <mxPoint x="410" y="310" as="sourcePoint" />
            <mxPoint x="510" y="210" as="targetPoint" />
          </mxGeometry>
        </mxCell>
        <mxCell id="9rpDdjOB9ZZYko7884jz-165" value="" style="edgeStyle=entityRelationEdgeStyle;fontSize=12;html=1;endArrow=ERoneToMany;rounded=0;entryX=1;entryY=0.25;entryDx=0;entryDy=0;" parent="1" source="9rpDdjOB9ZZYko7884jz-161" target="9rpDdjOB9ZZYko7884jz-9" edge="1">
          <mxGeometry width="100" height="100" relative="1" as="geometry">
            <mxPoint x="370" y="350" as="sourcePoint" />
            <mxPoint x="190" y="290" as="targetPoint" />
            <Array as="points">
              <mxPoint x="240" y="310" />
            </Array>
          </mxGeometry>
        </mxCell>
        <mxCell id="9rpDdjOB9ZZYko7884jz-166" value="" style="edgeStyle=entityRelationEdgeStyle;fontSize=12;html=1;endArrow=ERmandOne;rounded=0;" parent="1" source="9rpDdjOB9ZZYko7884jz-161" target="9rpDdjOB9ZZYko7884jz-144" edge="1">
          <mxGeometry width="100" height="100" relative="1" as="geometry">
            <mxPoint x="400" y="300" as="sourcePoint" />
            <mxPoint x="500" y="200" as="targetPoint" />
          </mxGeometry>
        </mxCell>
        <mxCell id="9rpDdjOB9ZZYko7884jz-167" value="" style="group" parent="1" vertex="1" connectable="0">
          <mxGeometry x="320" y="130" width="355" height="140" as="geometry" />
        </mxCell>
        <mxCell id="9rpDdjOB9ZZYko7884jz-144" value="Users" style="whiteSpace=wrap;html=1;align=center;fillColor=#60a917;strokeColor=#2D7600;fontColor=#ffffff;strokeWidth=3;perimeterSpacing=0;glass=0;rounded=0;shadow=0;" parent="9rpDdjOB9ZZYko7884jz-167" vertex="1">
          <mxGeometry x="140" y="100" width="100" height="40" as="geometry" />
        </mxCell>
        <mxCell id="9rpDdjOB9ZZYko7884jz-146" value="User ID" style="ellipse;whiteSpace=wrap;html=1;align=center;fontStyle=4;fillColor=#fff2cc;strokeColor=#d6b656;" parent="9rpDdjOB9ZZYko7884jz-167" vertex="1">
          <mxGeometry x="75" width="100" height="40" as="geometry" />
        </mxCell>
        <mxCell id="9rpDdjOB9ZZYko7884jz-147" value="Role" style="ellipse;whiteSpace=wrap;html=1;align=center;fillColor=#fff2cc;strokeColor=#d6b656;" parent="9rpDdjOB9ZZYko7884jz-167" vertex="1">
          <mxGeometry y="50" width="100" height="40" as="geometry" />
        </mxCell>
        <mxCell id="9rpDdjOB9ZZYko7884jz-149" value="Email" style="ellipse;whiteSpace=wrap;html=1;align=center;fillColor=#fff2cc;strokeColor=#d6b656;" parent="9rpDdjOB9ZZYko7884jz-167" vertex="1">
          <mxGeometry x="190" width="100" height="40" as="geometry" />
        </mxCell>
        <mxCell id="9rpDdjOB9ZZYko7884jz-150" value="Password" style="ellipse;whiteSpace=wrap;html=1;align=center;fillColor=#fff2cc;strokeColor=#d6b656;" parent="9rpDdjOB9ZZYko7884jz-167" vertex="1">
          <mxGeometry x="255" y="50" width="100" height="40" as="geometry" />
        </mxCell>
        <mxCell id="9rpDdjOB9ZZYko7884jz-157" value="" style="endArrow=none;html=1;rounded=0;" parent="9rpDdjOB9ZZYko7884jz-167" source="9rpDdjOB9ZZYko7884jz-147" target="9rpDdjOB9ZZYko7884jz-144" edge="1">
          <mxGeometry relative="1" as="geometry">
            <mxPoint x="65" y="170" as="sourcePoint" />
            <mxPoint x="225" y="170" as="targetPoint" />
          </mxGeometry>
        </mxCell>
        <mxCell id="9rpDdjOB9ZZYko7884jz-158" value="" style="endArrow=none;html=1;rounded=0;" parent="9rpDdjOB9ZZYko7884jz-167" source="9rpDdjOB9ZZYko7884jz-146" target="9rpDdjOB9ZZYko7884jz-144" edge="1">
          <mxGeometry relative="1" as="geometry">
            <mxPoint x="85" y="160" as="sourcePoint" />
            <mxPoint x="245" y="160" as="targetPoint" />
          </mxGeometry>
        </mxCell>
        <mxCell id="9rpDdjOB9ZZYko7884jz-159" value="" style="endArrow=none;html=1;rounded=0;" parent="9rpDdjOB9ZZYko7884jz-167" source="9rpDdjOB9ZZYko7884jz-149" target="9rpDdjOB9ZZYko7884jz-144" edge="1">
          <mxGeometry relative="1" as="geometry">
            <mxPoint x="75" y="190" as="sourcePoint" />
            <mxPoint x="235" y="190" as="targetPoint" />
          </mxGeometry>
        </mxCell>
        <mxCell id="9rpDdjOB9ZZYko7884jz-160" value="" style="endArrow=none;html=1;rounded=0;" parent="9rpDdjOB9ZZYko7884jz-167" source="9rpDdjOB9ZZYko7884jz-150" target="9rpDdjOB9ZZYko7884jz-144" edge="1">
          <mxGeometry relative="1" as="geometry">
            <mxPoint x="55" y="230" as="sourcePoint" />
            <mxPoint x="215" y="230" as="targetPoint" />
          </mxGeometry>
        </mxCell>
        <mxCell id="9rpDdjOB9ZZYko7884jz-189" value="ER diagram for Doctor Appointment System" style="text;strokeColor=none;fillColor=none;html=1;fontSize=24;fontStyle=1;verticalAlign=middle;align=center;" parent="1" vertex="1">
          <mxGeometry x="341" y="760" width="530" height="40" as="geometry" />
        </mxCell>
        <mxCell id="9rpDdjOB9ZZYko7884jz-192" value="" style="group" parent="1" vertex="1" connectable="0">
          <mxGeometry x="910" y="375" width="280" height="185" as="geometry" />
        </mxCell>
        <mxCell id="9rpDdjOB9ZZYko7884jz-169" value="Feedbacks" style="whiteSpace=wrap;html=1;align=center;fillColor=#60a917;fontColor=#ffffff;strokeColor=#2D7600;strokeWidth=3;" parent="9rpDdjOB9ZZYko7884jz-192" vertex="1">
          <mxGeometry x="80" y="70" width="100" height="40" as="geometry" />
        </mxCell>
        <mxCell id="9rpDdjOB9ZZYko7884jz-170" value="Description" style="ellipse;whiteSpace=wrap;html=1;align=center;fillColor=#fff2cc;strokeColor=#d6b656;" parent="9rpDdjOB9ZZYko7884jz-192" vertex="1">
          <mxGeometry width="100" height="40" as="geometry" />
        </mxCell>
        <mxCell id="9rpDdjOB9ZZYko7884jz-179" value="Feedback ID" style="ellipse;whiteSpace=wrap;html=1;align=center;fontStyle=4;fillColor=#fff2cc;strokeColor=#d6b656;" parent="9rpDdjOB9ZZYko7884jz-192" vertex="1">
          <mxGeometry x="180" y="145" width="100" height="40" as="geometry" />
        </mxCell>
        <mxCell id="9rpDdjOB9ZZYko7884jz-180" value="Phone" style="ellipse;whiteSpace=wrap;html=1;align=center;fillColor=#fff2cc;strokeColor=#d6b656;" parent="9rpDdjOB9ZZYko7884jz-192" vertex="1">
          <mxGeometry y="145" width="100" height="40" as="geometry" />
        </mxCell>
        <mxCell id="9rpDdjOB9ZZYko7884jz-181" value="Email" style="ellipse;whiteSpace=wrap;html=1;align=center;fillColor=#fff2cc;strokeColor=#d6b656;" parent="9rpDdjOB9ZZYko7884jz-192" vertex="1">
          <mxGeometry x="170" width="100" height="40" as="geometry" />
        </mxCell>
        <mxCell id="9rpDdjOB9ZZYko7884jz-182" value="" style="endArrow=none;html=1;rounded=0;" parent="9rpDdjOB9ZZYko7884jz-192" source="9rpDdjOB9ZZYko7884jz-169" target="9rpDdjOB9ZZYko7884jz-181" edge="1">
          <mxGeometry relative="1" as="geometry">
            <mxPoint x="300" y="95" as="sourcePoint" />
            <mxPoint x="460" y="95" as="targetPoint" />
          </mxGeometry>
        </mxCell>
        <mxCell id="9rpDdjOB9ZZYko7884jz-183" value="" style="endArrow=none;html=1;rounded=0;" parent="9rpDdjOB9ZZYko7884jz-192" source="9rpDdjOB9ZZYko7884jz-180" target="9rpDdjOB9ZZYko7884jz-169" edge="1">
          <mxGeometry relative="1" as="geometry">
            <mxPoint x="50" y="125" as="sourcePoint" />
            <mxPoint x="210" y="125" as="targetPoint" />
          </mxGeometry>
        </mxCell>
        <mxCell id="9rpDdjOB9ZZYko7884jz-184" value="" style="endArrow=none;html=1;rounded=0;" parent="9rpDdjOB9ZZYko7884jz-192" source="9rpDdjOB9ZZYko7884jz-179" target="9rpDdjOB9ZZYko7884jz-169" edge="1">
          <mxGeometry relative="1" as="geometry">
            <mxPoint x="280" y="95" as="sourcePoint" />
            <mxPoint x="440" y="95" as="targetPoint" />
          </mxGeometry>
        </mxCell>
        <mxCell id="9rpDdjOB9ZZYko7884jz-185" value="" style="endArrow=none;html=1;rounded=0;" parent="9rpDdjOB9ZZYko7884jz-192" source="9rpDdjOB9ZZYko7884jz-170" target="9rpDdjOB9ZZYko7884jz-169" edge="1">
          <mxGeometry relative="1" as="geometry">
            <mxPoint x="-80" y="45" as="sourcePoint" />
            <mxPoint x="120" y="90" as="targetPoint" />
          </mxGeometry>
        </mxCell>
        <mxCell id="ZjMhqAL9Gjdf_ciRneZa-5" value="Orders" style="whiteSpace=wrap;html=1;align=center;fillColor=#60a917;strokeColor=#2D7600;fontColor=#ffffff;strokeWidth=3;perimeterSpacing=0;glass=0;rounded=0;shadow=0;" vertex="1" parent="1">
          <mxGeometry x="1240" y="155" width="100" height="40" as="geometry" />
        </mxCell>
        <mxCell id="ZjMhqAL9Gjdf_ciRneZa-6" value="Order ID" style="ellipse;whiteSpace=wrap;html=1;align=center;fontStyle=4;fillColor=#fff2cc;strokeColor=#d6b656;" vertex="1" parent="1">
          <mxGeometry x="1190" y="80" width="100" height="40" as="geometry" />
        </mxCell>
        <mxCell id="ZjMhqAL9Gjdf_ciRneZa-10" value="" style="endArrow=none;html=1;rounded=0;" edge="1" parent="1" source="ZjMhqAL9Gjdf_ciRneZa-6" target="ZjMhqAL9Gjdf_ciRneZa-5">
          <mxGeometry relative="1" as="geometry">
            <mxPoint x="720" y="170" as="sourcePoint" />
            <mxPoint x="880" y="170" as="targetPoint" />
          </mxGeometry>
        </mxCell>
        <mxCell id="ZjMhqAL9Gjdf_ciRneZa-13" value="" style="edgeStyle=entityRelationEdgeStyle;fontSize=12;html=1;endArrow=ERzeroToMany;endFill=1;rounded=0;" edge="1" parent="1" source="ZjMhqAL9Gjdf_ciRneZa-8" target="ZjMhqAL9Gjdf_ciRneZa-5">
          <mxGeometry width="100" height="100" relative="1" as="geometry">
            <mxPoint x="1140" y="180" as="sourcePoint" />
            <mxPoint x="1240" y="80" as="targetPoint" />
          </mxGeometry>
        </mxCell>
        <mxCell id="ZjMhqAL9Gjdf_ciRneZa-17" value="Product ID" style="ellipse;whiteSpace=wrap;html=1;align=center;fillColor=#fff2cc;strokeColor=#d6b656;" vertex="1" parent="1">
          <mxGeometry x="1330" y="80" width="100" height="40" as="geometry" />
        </mxCell>
        <mxCell id="ZjMhqAL9Gjdf_ciRneZa-18" value="Amount" style="ellipse;whiteSpace=wrap;html=1;align=center;fillColor=#fff2cc;strokeColor=#d6b656;" vertex="1" parent="1">
          <mxGeometry x="1360" y="155" width="100" height="40" as="geometry" />
        </mxCell>
        <mxCell id="ZjMhqAL9Gjdf_ciRneZa-19" value="Status" style="ellipse;whiteSpace=wrap;html=1;align=center;fillColor=#fff2cc;strokeColor=#d6b656;" vertex="1" parent="1">
          <mxGeometry x="1300" y="230" width="100" height="40" as="geometry" />
        </mxCell>
        <mxCell id="ZjMhqAL9Gjdf_ciRneZa-20" value="" style="endArrow=none;html=1;rounded=0;" edge="1" parent="1" source="ZjMhqAL9Gjdf_ciRneZa-17" target="ZjMhqAL9Gjdf_ciRneZa-5">
          <mxGeometry relative="1" as="geometry">
            <mxPoint x="920" y="100" as="sourcePoint" />
            <mxPoint x="1080" y="100" as="targetPoint" />
          </mxGeometry>
        </mxCell>
        <mxCell id="ZjMhqAL9Gjdf_ciRneZa-21" value="" style="endArrow=none;html=1;rounded=0;" edge="1" parent="1" source="ZjMhqAL9Gjdf_ciRneZa-5" target="ZjMhqAL9Gjdf_ciRneZa-18">
          <mxGeometry relative="1" as="geometry">
            <mxPoint x="1380" y="290" as="sourcePoint" />
            <mxPoint x="1540" y="290" as="targetPoint" />
          </mxGeometry>
        </mxCell>
        <mxCell id="ZjMhqAL9Gjdf_ciRneZa-22" value="" style="endArrow=none;html=1;rounded=0;" edge="1" parent="1" source="ZjMhqAL9Gjdf_ciRneZa-19" target="ZjMhqAL9Gjdf_ciRneZa-5">
          <mxGeometry relative="1" as="geometry">
            <mxPoint x="1390" y="330" as="sourcePoint" />
            <mxPoint x="1550" y="330" as="targetPoint" />
          </mxGeometry>
        </mxCell>
      </root>
    </mxGraphModel>
  </diagram>
</mxfile>
